<?xml version="1.0" encoding="UTF-8"?><svg id="Calque_1" xmlns="http://www.w3.org/2000/svg" viewBox="0 0 873.43 227.96"><defs><style>.cls-1{fill:#fff;}.cls-2{fill:#151515;}</style></defs><path class="cls-1" d="M120.61,108.1c4.24-1.78,8.15-4.21,11.55-7.46,6.42-6.77,9.19-17.45,7.3-26.57-.76-3.03-1.51-6.71-4.51-8.25-3.21-1.69-6.68.04-8.42,2.96-1.45,2.43-1.29,3.86-3.57,3.83.96-2.9,1.66-5.67,2.07-8.23.76-4.87.63-7.83.26-10.21.64-1,1.07-2.13,1.24-3.32.31-2.19-.26-4.36-1.59-6.13s-3.27-2.9-5.46-3.21c-.38-.05-.77-.08-1.15-.08-4.1,0-7.62,3.06-8.19,7.13-.23,1.68.05,3.34.77,4.8-1.57,2.67-4.24,4.66-6.03,4.66-1.12,0-2.43-2.01-2.84-6.49-.01-.49.1-1.77.22-2.92,1.31-1.38,2.18-3.14,2.45-5.07.34-2.44-.29-4.86-1.77-6.83s-3.64-3.23-6.08-3.57c-.42-.06-.85-.09-1.28-.09h0c-4.57,0-8.49,3.41-9.12,7.94-.28,2.02.13,4.06,1.1,5.79-1.24,4.13-3.78,7.85-5.51,7.91h-.05c-1.53,0-3.38-3.03-4.2-6.49.87-1.12,1.46-2.47,1.66-3.92.31-2.19-.26-4.36-1.59-6.13-1.33-1.76-3.27-2.9-5.46-3.21-.38-.05-.77-.08-1.15-.08-4.1,0-7.62,3.06-8.19,7.13-.2,1.44-.01,2.89.52,4.21-1.14,2.79-1.92,5.7-2.32,8.69-.5,3.68-.41,7.39.24,11.04l.03.46.05.75.11,1.38c-1.36.66-2.71,1.55-4.05,2.2-.11-3.2-17.6-8.41-18.13,9.25-13.69,3.83-10.45,12.58-6.83,12.71.03,0,.04.04.05.07.01.05,0,.11-.02.17-.11.38-.3.71-.5,1.05-1.26,2.19-2.31,4.49-3.13,6.88-.8,2.33-1.38,4.74-1.74,7.18-.36,2.43-.5,4.89-.43,7.35.07,2.48.34,4.95.81,7.39.47,2.47,1.13,4.9,1.96,7.27.51,1.45,2.65,5.51,2.79,6.45.09.61-.77,2.17-.94,2.91-2.02,8.88,1.18,19.44,10.35,22.69,2.78.99,5.35,1.09,8.28,1.2,6.74,12.73,19.52,21.63,34.09,22.53,17.18,1.06,34.71-3.58,43.38-19.59,12.05-22.26-3.64-36.84-4.57-38.85,2.61-9.91-.63-16.35-2.47-19.26Z"/><path class="cls-2" d="M77.17,140.26c.28-.84,2.28-1.28,2.88,0,1.38,2.92-3.94,3.2-2.88,0Z"/><path class="cls-2" d="M73.85,146.43c-1.5,1.65-3.91-1.07-2.17-2.31,1.62-1.16,3.52.82,2.17,2.31Z"/><path class="cls-2" d="M114.86,136.13c1.49-.31,2.66,1.38,1.66,2.46-2.16,2.31-4.24-1.91-1.66-2.46Z"/><path class="cls-2" d="M119.58,140.47c1.49-.31,2.66,1.38,1.66,2.46-2.16,2.31-4.24-1.91-1.66-2.46Z"/><path class="cls-2" d="M95.23,132.31c.3-.43.68-.8,1.12-1.08s.9-.47,1.39-.59,1.02-.16,1.54-.14,1.06.11,1.57.26,1.01.35,1.48.61.89.55,1.28.91.7.73.96,1.16.44.88.53,1.36.08,1.01-.03,1.51c-.27.86-.57,1.94-1.43,2.28-.22.02-.32-.07-.38-.33-1.11-4.64-4.97-6.24-8.26-2.08-.36.45-.78-.09-.76-.54.02-1.15.32-2.38.99-3.33Z"/><path class="cls-2" d="M53.58,141.29c0,.07-.01.15-.05.24-.21.48-.89.86-1.25,1.24-.42.44-.74.95-.78,1.57-.07,1.21.96,2.2,1.66,3.07.24.34.58.63.52,1.02-.1.44-1.8.23-2.98-.6-1.03-.69-1.76-1.74-2.17-2.9-.34-.96-.57-2.16-1.79-2.3-1.15-.13-2.23.52-3.36.44-.13,0-.3-.01-.36-.13-1.62-3.19,11.05-5.32,10.56-1.64Z"/><path class="cls-2" d="M72.39,68.78l.11.04c.64-.16,1.28-.3,1.93-.41-.63.11-1.32.23-2.04.37Z"/><path class="cls-2" d="M102.36,119.95c3.59-1.58,6.44-3.99,8.17-7.51.21-.43.7-.65,1.15-.5,1.26.4,2.18.92,2.8,1.33.69.46,1.71,1.34,2.37,1.92.36.32.42.87.12,1.24-.83,1.04-1.74,2.03-2.74,2.93-2.82,2.63-6.61,4.33-10.31,5.19-1.3.3-2.6-.5-2.92-1.8h0c-.28-1.14.28-2.33,1.36-2.81Z"/><path class="cls-2" d="M82.53,111.77c2.14,4.13,6.21,7.32,10.73,8.49.5.13.86.55.88,1.06,0,.17.01.35.02.55.07,2.03-1.77,3.61-3.77,3.23-.29-.06-.56-.11-.79-.16-5.39-1.28-10.29-4.08-14.32-7.89-.39-.37-.47-.97-.19-1.44.35-.59.82-1.24,1.46-1.87,1.61-1.59,3.46-2.25,4.69-2.53.51-.12,1.05.11,1.3.58Z"/><path class="cls-2" d="M112.9,142.43c-1.3-.45-.63,1.99-.78,2.86-.18,1.04-4.06,3.46-11.68,3.77-6.59.28-13.28-.48-13.6-2.17-.13-.86-.03-1.64.3-2.43.13-.33.26-.66.19-.94-.21-.74-1.2-.71-1.8-.44-1.84.88-2.94,2.75-3.61,4.66-.54,1.69-.89,3.85.18,5.39.22.32.58.72,1,.57,1.03-.65.77-2.44,1.88-3.15.95-.61,1.87.36,2.44,1.05,1.61,1.95,3.95,3.42,6.22,4.48,3.1,1.42,6.64,2.1,9.99,1.25,1.72-.43,3.32-1.25,4.72-2.34.82-.64,1.57-1.37,2.25-2.14.38-.45.75-.9,1.1-1.38.45-.66.9-2.1,1.87-1.78.58.16.79,1.17,1.47,1.02,1.99-.45-.76-7.81-2.15-8.27ZM104.21,154.2c-.06.05-1.08.27-1.23.27-.7.04-4.18-.15-4.51-.5-.46-.55-.98-2.55-.39-2.98.17-.13.89.13,3.49-.03,2.26-.14,3.14-.56,3.37-.32.76.77.33,2.74-.73,3.55Z"/><path class="cls-2" d="M89.94,127.55c-6.73-5.43-12.88,1.97-10.72,5.6.17.29.09.66-.19.84-.21.13-.33.22-.36.25-.39.45-.93,1.04-.54,1.55.95.85,5.27-.7,7.01-.93.04,0,.08-.01.13-.03.09-.01.19-.03.29-.06.73-.16,1.43-.35,2.05-.55l.13-.05c.87-.26,1.58-.71,2.13-1.28h0c1.33-1.43,1.84-3.92.06-5.35Z"/><path class="cls-2" d="M118.78,131.58c-.18-.16-.62-.4-.53-.96.37-2.2-1.4-4.33-3.42-5.18-.11-.05-.23-.09-.35-.13-4.33-1.35-7.23,1.41-7.4,3.75-.04.61.25,1.17.75,1.51.05.04.11.07.17.1,1.24.66,2.61,1.05,4.02,1.35.01,0,.03,0,.04,0,.95.22,1.93.39,2.88.61.02,0,.04.01.07.01,1.77.49,3.76,1.05,4.36.46.38-.53-.19-1.09-.61-1.52Z"/><path class="cls-2" d="M108.04,160.72c-.21,1.87-3.47,3.03-5.7,3.28-1.94.19-4.94.18-5.31-2.2-.09-.73.4-1.22,1.18-1.23,2.18,0,4.48.61,6.54-.28.94-.24,2.14-1.29,3.06-.62.31.34.25.85.23,1.04Z"/><path class="cls-2" d="M133.13,70.69s-.04-.09-.07-.13c-.03-.04-.06-.08-.09-.11-.19-.21-.46-.32-.73-.32-.3,0-.6.14-.8.41-1.21,1.65-2.23,2.91-3.23,3.83-.09.09-.16.16-.25.23-.27.25-.55.46-.83.65-.21.15-.42.28-.63.39-.05.04-.1.06-.15.08-.14.08-.29.15-.43.21-.16.07-.33.14-.51.19s-.36.11-.53.14c-.18.04-.36.08-.56.11-.19.03-.38.04-.58.06-.2.01-.4.02-.61.02-1.38,0-3.02-.28-5.11-.78-8.52-2.04-16.59-5.49-25.28-6.89-8.71-1.4-17.71-1.01-26.26,1.19-4.14,1.13-8.59,2.51-11.47,5.99-1.21,1.34-2.09,3.08-3.02,4.58-.28.41-.52.66-.67.66-.04,0-.07-.01-.1-.04-.43-.84.83-4.04,1.25-5.33.46-1.12.99-2.8-.38-3.53-1.89-1-3.86.36-5.21,1.66-2.91,2.81-3.28,6.54-2.65,10.29.06.38-.31.66-.66.53-3.78-1.41-10.86,4.13-6.26,6.64.85.46,2.81-.09,2.12.82-.21.27-.49.63-.83,1.04-1.28,1.59-15.26,18.77-1.04,42.89-.75,2.34-1.9,4.59-2.11,7.09-1.54,18.39,16.04,15.71,17.27,15.12.58-.28,2.89,5.27,3.63,6.38,10.81,16.13,31.86,20.31,49.67,14.04,14.91-5.25,25.56-22.26,21.01-38.1-.43-1.51-3.13-7.72-5.06-7.32-1.08.23.19,1.45.33,1.78,3.85,8.68,1.69,21.16-3.77,28.75-10.97,15.24-37.08,16.9-52.39,4.76-4.2-3.32-6.78-7.97-9.26-12.66-.27-.51-.18-1.14.23-1.56,1.2-1.25,2.89-3.56,1.58-4.68-.4-.35-1.01-.35-1.47-.09-1.41.81-2.34,2.22-3.66,3.14-4.57,3.17-10.74.98-12.57-4.06-1.43-3.94-.7-9.28,2.79-11.94.74-.56,1.59-.97,2.49-1.21.47-.13,1-.22,1.55-.26,1.82-.15,3.61.58,4.86,1.91,1.94,2.05,3.79,4.06,6.57,3.63,6.85-1.05-.21-14.21-.06-15.76.05-.49,1.09-2.58,2.22-4.93,1.56-3.97,2.06-8.46.54-12.52-.28-.97-1.04-2.44-.39-3.26.6-.51,2.26.19,3.1.53,4.81,2.13,10.05,3.36,15.28,3.99,22.62,3.29,65.77-7.44,53.27-38.13-.01-.03-.03-.07-.04-.1ZM50.1,115.96l-2.95.75c-1.36.35-2.41,1.42-2.75,2.78l-.72,2.96c-.18.75-1.25.76-1.45,0l-.76-2.95c-.34-1.35-1.41-2.41-2.78-2.74l-2.96-.73c-.75-.18-.76-1.25,0-1.45l2.95-.75c1.36-.35,2.41-1.42,2.75-2.78l.72-2.96c.19-.75,1.25-.76,1.45,0l.76,2.95c.34,1.36,1.41,2.41,2.78,2.75l2.95.72c.76.18.76,1.26,0,1.45ZM55.45,107.08l-1.42.36c-.66.16-1.16.68-1.32,1.33l-.35,1.42c-.09.36-.61.37-.7,0l-.36-1.42c-.16-.66-.68-1.16-1.33-1.32l-1.42-.35c-.36-.09-.36-.6,0-.69l1.42-.36c.66-.17,1.16-.68,1.32-1.34l.35-1.42c.09-.36.6-.37.69,0l.36,1.42c.17.66.68,1.16,1.34,1.32l1.42.35c.36.09.37.61,0,.7ZM71.38,88.89c-2.29,2.53-4.12,2.2-3.62.56,1.59-5.23,10.5-15.36,28.96-13.46,5.63.62,10.91,2.41,16.21,3.94.14.04.56.15.31.3-.41.25-.94.26-1.41.25-.98,0-30.5-2.61-40.45,8.4ZM79.79,93.4c-.41.09-.69-.41-.42-.73.6-.72,1.54-1.59,1.75-1.77,12.18-10.4,31.22-1.94,43.92-8.77,1.61-.86,2.93-2.14,4.39-3.22.42-.34,1-.7.98-.11-1.3,23.28-32.43,14.41-44.17,14.18-2.17-.04-4.32,0-6.44.41Z"/><path class="cls-2" d="M121.6,50.15c-.15,1.07-.8,1.94-1.69,2.42.59,2.71,1.13,5.14.21,11.02-.46,2.93-1.3,6.15-2.06,8.38-5.06-1.4-29.19-10.43-51.47-5.4-.03-.57-1.03-5.91-.35-11.04.58-4.32,1.97-7.66,3.07-9.82-.91-.7-1.45-1.84-1.27-3.05.25-1.8,1.92-3.05,3.71-2.81,1.8.25,3.05,1.92,2.81,3.71-.17,1.22-1,2.19-2.08,2.6.41,5.2,3.51,13.66,9.75,13.48,5.68-.16,9.29-7.9,10.47-12.66.05-.22.18-.85.28-1.44-1.13-.9-1.77-2.36-1.56-3.89.33-2.31,2.46-3.92,4.78-3.6,2.31.33,3.92,2.46,3.6,4.78-.2,1.41-1.08,2.56-2.26,3.17-.2,1.89-.53,4.88-.44,5.91,1.62,18.21,16.65,10.72,19.59.61-1.1-.66-1.77-1.93-1.58-3.28.25-1.8,1.91-3.05,3.71-2.81,1.79.26,3.05,1.92,2.8,3.72Z"/><path class="cls-1" d="M179.08,149.74v-42.87h-15.08v-8.87h39.92v8.87h-15.08v42.87h-9.76Z"/><path class="cls-1" d="M228.6,150.78c-6.5,0-11.68-1.79-15.52-5.36-3.84-3.57-5.77-8.69-5.77-15.34v-12.42c0-6.65,1.92-11.76,5.77-15.34,3.84-3.57,9.02-5.36,15.52-5.36s11.68,1.79,15.52,5.36c3.84,3.57,5.77,8.69,5.77,15.34v12.42c0,6.65-1.92,11.77-5.77,15.34-3.84,3.57-9.02,5.36-15.52,5.36ZM228.6,142.06c3.65,0,6.48-1.06,8.5-3.18,2.02-2.12,3.03-4.95,3.03-8.5v-13.01c0-3.55-1.01-6.38-3.03-8.5-2.02-2.12-4.85-3.18-8.5-3.18s-6.42,1.06-8.46,3.18c-2.05,2.12-3.07,4.95-3.07,8.5v13.01c0,3.55,1.02,6.38,3.07,8.5,2.04,2.12,4.87,3.18,8.46,3.18Z"/><path class="cls-1" d="M258.47,149.74v-51.74h18.11l8.94,45.09h1.33l8.94-45.09h18.11v51.74h-9.46v-44.57h-1.33l-8.87,44.57h-16.11l-8.87-44.57h-1.33v44.57h-9.46Z"/><path class="cls-1" d="M343.77,150.78c-6.5,0-11.68-1.79-15.52-5.36-3.84-3.57-5.77-8.69-5.77-15.34v-12.42c0-6.65,1.92-11.76,5.77-15.34,3.84-3.57,9.02-5.36,15.52-5.36s11.68,1.79,15.52,5.36c3.84,3.57,5.77,8.69,5.77,15.34v12.42c0,6.65-1.92,11.77-5.77,15.34-3.84,3.57-9.02,5.36-15.52,5.36ZM343.77,142.06c3.65,0,6.48-1.06,8.5-3.18,2.02-2.12,3.03-4.95,3.03-8.5v-13.01c0-3.55-1.01-6.38-3.03-8.5-2.02-2.12-4.85-3.18-8.5-3.18s-6.42,1.06-8.46,3.18c-2.05,2.12-3.07,4.95-3.07,8.5v13.01c0,3.55,1.02,6.38,3.07,8.5,2.04,2.12,4.87,3.18,8.46,3.18Z"/><path class="cls-1" d="M373.63,149.74v-51.74h22.47c3.25,0,6.09.57,8.5,1.7,2.41,1.13,4.29,2.73,5.62,4.8,1.33,2.07,2,4.51,2,7.32v.89c0,3.1-.74,5.62-2.22,7.54s-3.3,3.33-5.47,4.21v1.33c1.97.1,3.5.78,4.58,2.03,1.08,1.26,1.63,2.92,1.63,4.99v16.93h-9.76v-15.52c0-1.18-.31-2.14-.92-2.88-.62-.74-1.64-1.11-3.07-1.11h-13.6v19.51h-9.76ZM383.39,121.36h11.68c2.32,0,4.13-.63,5.43-1.88,1.31-1.26,1.96-2.92,1.96-4.99v-.74c0-2.07-.64-3.73-1.92-4.99-1.28-1.26-3.1-1.88-5.47-1.88h-11.68v14.49Z"/><path class="cls-1" d="M420.35,149.74v-51.74h22.47c3.25,0,6.09.57,8.5,1.7,2.41,1.13,4.29,2.73,5.62,4.8,1.33,2.07,2,4.51,2,7.32v.89c0,3.1-.74,5.62-2.22,7.54s-3.3,3.33-5.47,4.21v1.33c1.97.1,3.5.78,4.58,2.03,1.08,1.26,1.63,2.92,1.63,4.99v16.93h-9.76v-15.52c0-1.18-.31-2.14-.92-2.88-.62-.74-1.64-1.11-3.07-1.11h-13.6v19.51h-9.76ZM430.1,121.36h11.68c2.32,0,4.13-.63,5.43-1.88,1.31-1.26,1.96-2.92,1.96-4.99v-.74c0-2.07-.64-3.73-1.92-4.99-1.28-1.26-3.1-1.88-5.47-1.88h-11.68v14.49Z"/><path class="cls-1" d="M487.17,150.78c-6.5,0-11.68-1.79-15.52-5.36-3.84-3.57-5.77-8.69-5.77-15.34v-12.42c0-6.65,1.92-11.76,5.77-15.34,3.84-3.57,9.02-5.36,15.52-5.36s11.68,1.79,15.52,5.36c3.84,3.57,5.77,8.69,5.77,15.34v12.42c0,6.65-1.92,11.77-5.77,15.34-3.84,3.57-9.02,5.36-15.52,5.36ZM487.17,142.06c3.65,0,6.48-1.06,8.5-3.18,2.02-2.12,3.03-4.95,3.03-8.5v-13.01c0-3.55-1.01-6.38-3.03-8.5-2.02-2.12-4.85-3.18-8.5-3.18s-6.42,1.06-8.46,3.18c-2.05,2.12-3.07,4.95-3.07,8.5v13.01c0,3.55,1.02,6.38,3.07,8.5,2.04,2.12,4.87,3.18,8.46,3.18Z"/><path class="cls-1" d="M520.73,149.74l-6.8-51.74h9.68l5.03,44.94h1.33l6.5-44.94h16.85l6.5,44.94h1.33l5.03-44.94h9.68l-6.8,51.74h-16.85l-6.65-45.98h-1.33l-6.65,45.98h-16.85Z"/><path class="cls-1" d="M588.95,150.78c-1.97,0-3.63-.65-4.99-1.96-1.36-1.31-2.03-2.99-2.03-5.06s.68-3.76,2.03-5.06c1.35-1.31,3.02-1.96,4.99-1.96s3.7.65,5.03,1.96,2,2.99,2,5.06-.67,3.76-2,5.06c-1.33,1.3-3.01,1.96-5.03,1.96Z"/><path class="cls-1" d="M623.62,150.78c-6.5,0-11.68-1.79-15.52-5.36-3.84-3.57-5.77-8.69-5.77-15.34v-12.42c0-6.65,1.92-11.76,5.77-15.34,3.84-3.57,9.02-5.36,15.52-5.36s11.68,1.79,15.52,5.36c3.84,3.57,5.77,8.69,5.77,15.34v12.42c0,6.65-1.92,11.77-5.77,15.34-3.84,3.57-9.02,5.36-15.52,5.36ZM623.62,142.06c3.65,0,6.48-1.06,8.5-3.18,2.02-2.12,3.03-4.95,3.03-8.5v-13.01c0-3.55-1.01-6.38-3.03-8.5-2.02-2.12-4.85-3.18-8.5-3.18s-6.42,1.06-8.46,3.18c-2.05,2.12-3.07,4.95-3.07,8.5v13.01c0,3.55,1.02,6.38,3.07,8.5,2.04,2.12,4.87,3.18,8.46,3.18Z"/><path class="cls-1" d="M653.48,149.74v-51.74h18.55l10.27,45.09h1.33v-45.09h9.61v51.74h-18.55l-10.27-45.09h-1.33v45.09h-9.61Z"/><path class="cls-1" d="M703,149.74v-51.74h9.76v42.87h23.65v8.87h-33.41Z"/><path class="cls-1" d="M743.07,149.74v-51.74h9.76v51.74h-9.76Z"/><path class="cls-1" d="M762.58,149.74v-51.74h18.55l10.27,45.09h1.33v-45.09h9.61v51.74h-18.55l-10.28-45.09h-1.33v45.09h-9.61Z"/><path class="cls-1" d="M812.11,149.74v-51.74h33.26v8.87h-23.51v12.34h21.44v8.87h-21.44v12.79h23.95v8.87h-33.71Z"/></svg>