<svg width="339" height="66" viewBox="0 0 339 66" fill="none" xmlns="http://www.w3.org/2000/svg">
<g clip-path="url(#clip0_1809_16022)">
<path d="M40.5795 32.4022C42.4147 31.6308 44.1112 30.5859 45.5825 29.1844C48.3616 26.2617 49.5615 21.6548 48.7441 17.7147C48.4141 16.4086 48.0902 14.8166 46.7916 14.1527C45.4005 13.4244 43.8984 14.1712 43.1458 15.4282C42.5165 16.4793 42.5844 17.097 41.6004 17.0816C42.0168 15.8308 42.3222 14.6352 42.4949 13.5288C42.825 11.4267 42.7695 10.1512 42.6091 9.12475C42.8867 8.69448 43.0748 8.20582 43.1458 7.6895C43.2784 6.74598 43.0347 5.80554 42.4579 5.04335C41.8811 4.28116 41.0422 3.78943 40.0952 3.65728C39.9317 3.63576 39.7621 3.62347 39.5986 3.62347C37.822 3.62347 36.2982 4.94501 36.0515 6.69988C35.9497 7.42519 36.0731 8.14435 36.3846 8.77132C35.706 9.92382 34.5462 10.7813 33.7751 10.7813C33.2878 10.7813 32.7202 9.9146 32.5444 7.97839C32.5382 7.76941 32.5876 7.2162 32.637 6.71832C33.2045 6.12517 33.5808 5.35991 33.698 4.5301C33.8461 3.47902 33.5715 2.43101 32.93 1.58277C32.2884 0.734529 31.3538 0.187474 30.2958 0.0399534C30.1138 0.0122934 29.9257 0 29.7437 0C27.7666 0 26.067 1.47213 25.7925 3.42678C25.6691 4.2996 25.848 5.17858 26.2706 5.9254C25.7339 7.70794 24.6327 9.3153 23.8863 9.33681H23.8647C23.2015 9.33681 22.3996 8.03064 22.0449 6.537C22.4242 6.05448 22.6772 5.47362 22.7635 4.84666C22.8962 3.90314 22.6525 2.9627 22.0757 2.20051C21.4989 1.43832 20.6599 0.946589 19.713 0.814435C19.5495 0.792922 19.3799 0.780629 19.2164 0.780629C17.4397 0.780629 15.916 2.10217 15.6692 3.85704C15.5829 4.48093 15.6662 5.10482 15.8944 5.67339C15.4009 6.87506 15.0647 8.13206 14.8889 9.42594C14.673 11.0118 14.71 12.6161 14.9937 14.1927L15.0061 14.3894L15.0277 14.7121L15.0739 15.3083C14.4848 15.5941 13.8988 15.9752 13.322 16.258C13.2757 14.878 5.70021 12.6284 5.46888 20.2502C-0.46257 21.9037 0.943951 25.6808 2.51087 25.7362C2.5232 25.7362 2.52937 25.7546 2.53246 25.7669C2.53863 25.7915 2.53246 25.8161 2.52629 25.8376C2.48002 26.0035 2.39674 26.1449 2.31037 26.2924C1.76442 27.2359 1.311 28.2317 0.956289 29.2613C0.607743 30.2693 0.357901 31.3081 0.200592 32.3592C0.0463685 33.4072 -0.0153211 34.4706 0.0155237 35.5309C0.043284 36.6004 0.163579 37.6699 0.36407 38.721C0.567645 39.7844 0.851417 40.8355 1.2123 41.8558C1.4313 42.4828 2.35973 44.2315 2.42142 44.6403C2.45843 44.9015 2.08829 45.5776 2.01426 45.8942C1.14136 49.7267 2.52629 54.2844 6.49909 55.6889C7.70512 56.1161 8.81554 56.1592 10.0863 56.2083C13.0073 61.7004 18.544 65.5451 24.8548 65.9355C32.2946 66.3934 39.8916 64.3896 43.6455 57.4807C48.8675 47.8704 42.0662 41.5792 41.6652 40.7125C42.7941 36.4345 41.3907 33.6531 40.5949 32.3992L40.5795 32.4022Z" fill="white"/>
<path d="M21.7641 46.2814C21.8844 45.9187 22.7512 45.7312 23.0133 46.2814C23.6117 47.5414 21.3045 47.6613 21.7641 46.2814Z" fill="#211D1D"/>
<path d="M20.3235 48.9461C19.6758 49.6561 18.6301 48.4851 19.3827 47.9504C20.0829 47.4525 20.9096 48.3038 20.3235 48.9461Z" fill="#211D1D"/>
<path d="M38.0906 44.5027C38.7353 44.3675 39.2442 45.099 38.8093 45.563C37.8716 46.5588 36.974 44.7363 38.0906 44.5027Z" fill="#211D1D"/>
<path d="M40.1326 46.3738C40.7772 46.2386 41.2862 46.9701 40.8513 47.4341C39.9136 48.4299 39.016 46.6074 40.1326 46.3738Z" fill="#211D1D"/>
<path d="M29.5866 42.8513C29.7162 42.6669 29.8827 42.507 30.0709 42.3841C30.259 42.2612 30.4595 42.1813 30.6724 42.1321C30.8852 42.0829 31.1134 42.0614 31.3386 42.0737C31.5638 42.086 31.7982 42.1229 32.0172 42.1843C32.2362 42.2458 32.4552 42.3349 32.6588 42.4456C32.8592 42.5531 33.0474 42.6853 33.214 42.8359C33.3744 42.9834 33.5193 43.1494 33.6304 43.3338C33.7414 43.5182 33.8185 43.7118 33.8586 43.9208C33.8987 44.1298 33.8925 44.3572 33.8463 44.5723C33.7291 44.9442 33.5995 45.4083 33.2263 45.5558C33.1307 45.565 33.0875 45.5251 33.0597 45.4144C32.5786 43.4106 30.9068 42.7222 29.4787 44.517C29.3244 44.7106 29.1425 44.4771 29.1517 44.2865C29.161 43.7917 29.2905 43.26 29.5804 42.8513H29.5866Z" fill="#211D1D"/>
<path d="M11.5449 46.7272C11.5418 46.7579 11.5387 46.7917 11.5233 46.8317C11.4308 47.0376 11.1378 47.2035 10.9804 47.3664C10.7985 47.5539 10.6597 47.7752 10.6442 48.0426C10.6134 48.565 11.0606 48.9922 11.3629 49.3672C11.4678 49.5147 11.6128 49.6376 11.5881 49.8067C11.5449 49.9972 10.8077 49.9081 10.2957 49.5485C9.84844 49.2535 9.53382 48.7955 9.35492 48.2946C9.20995 47.8797 9.10817 47.3603 8.58072 47.305C8.08104 47.2496 7.61528 47.5324 7.12485 47.4955C7.06933 47.4924 6.9953 47.4894 6.96754 47.4402C6.26428 46.0664 11.7546 45.1444 11.5449 46.7333V46.7272Z" fill="#211D1D"/>
<path d="M19.6943 15.4274L19.7406 15.4428C20.0182 15.3751 20.2958 15.3137 20.5765 15.2676C20.302 15.3168 20.0059 15.369 19.6943 15.4274Z" fill="#211D1D"/>
<path d="M32.6743 37.5171C34.2289 36.8349 35.4626 35.793 36.2122 34.2778C36.3047 34.0934 36.5144 33.9982 36.7119 34.0596C37.2578 34.2348 37.6557 34.4561 37.9241 34.6344C38.2232 34.831 38.6674 35.2121 38.9512 35.4642C39.1085 35.6025 39.1332 35.8391 39.0036 36.002C38.6458 36.4507 38.251 36.8779 37.8161 37.2682C36.5977 38.4053 34.9537 39.1399 33.3529 39.5087C32.7884 39.6378 32.227 39.2935 32.0882 38.7342C31.9648 38.2425 32.2116 37.7261 32.6774 37.5233L32.6743 37.5171Z" fill="#211D1D"/>
<path d="M24.084 33.9882C25.0093 35.7708 26.7768 37.1476 28.7323 37.6517C28.9482 37.707 29.1055 37.8883 29.1117 38.1096C29.1117 38.1803 29.1179 38.2602 29.1179 38.3462C29.1456 39.2221 28.3498 39.9044 27.4862 39.7385C27.3597 39.7139 27.2456 39.6923 27.1438 39.6708C24.8089 39.1207 22.6867 37.9129 20.9409 36.2656C20.7713 36.1058 20.7373 35.8445 20.8576 35.6448C21.0088 35.3897 21.2124 35.11 21.49 34.8365C22.1871 34.148 22.9859 33.8653 23.5195 33.7424C23.7416 33.6901 23.976 33.7885 24.0809 33.9913L24.084 33.9882Z" fill="#211D1D"/>
<path d="M37.2418 47.2149C36.6773 47.0213 36.9704 48.0755 36.9056 48.4473C36.8285 48.896 35.1474 49.941 31.844 50.0762C28.9877 50.1961 26.0914 49.8672 25.9526 49.1388C25.8971 48.767 25.9403 48.432 26.0822 48.0908C26.1377 47.9464 26.1963 47.805 26.1654 47.6852C26.0729 47.3655 25.6442 47.3778 25.3851 47.4946C24.5893 47.8726 24.1112 48.6809 23.8212 49.5076C23.5868 50.2391 23.4357 51.1703 23.8983 51.8342C23.994 51.9725 24.1513 52.1446 24.3333 52.08C24.7805 51.8004 24.6664 51.0259 25.1476 50.7185C25.5578 50.4542 25.9588 50.8753 26.2055 51.1703C26.9026 52.0124 27.9174 52.6486 28.9014 53.1035C30.2431 53.7181 31.7761 54.0101 33.2289 53.6444C33.9753 53.4569 34.6663 53.1035 35.2739 52.6332C35.6286 52.3566 35.9525 52.0432 36.2486 51.7082C36.4152 51.5145 36.5755 51.3178 36.7267 51.1119C36.921 50.8292 37.1153 50.2053 37.5348 50.3436C37.7847 50.4143 37.8772 50.8507 38.1733 50.7831C39.0339 50.5895 37.8433 47.4116 37.2418 47.2149ZM33.4787 52.2982C33.451 52.3198 33.013 52.415 32.9451 52.415C32.6428 52.4335 31.1345 52.3505 30.9926 52.1999C30.7952 51.9632 30.5701 51.0996 30.823 50.9152C30.897 50.8599 31.2086 50.9706 32.3344 50.9029C33.3153 50.8445 33.6946 50.6632 33.7933 50.7646C34.1234 51.0966 33.9352 51.9479 33.4787 52.2982Z" fill="#211D1D"/>
<path d="M27.2948 40.7991C24.3768 38.4542 21.7119 41.6474 22.6526 43.2178C22.7267 43.3438 22.6927 43.5006 22.5693 43.5774C22.4799 43.6327 22.4244 43.6727 22.412 43.685C22.2424 43.8786 22.008 44.1337 22.1807 44.3519C22.594 44.7176 24.4632 44.0507 25.2189 43.9493C25.2343 43.9462 25.2559 43.9431 25.2744 43.937C25.3145 43.9308 25.3546 43.9247 25.4009 43.9124C25.7186 43.8448 26.0209 43.7587 26.2861 43.6758L26.3447 43.6542C26.7241 43.5405 27.0295 43.3469 27.267 43.1041C27.8438 42.4864 28.0628 41.4138 27.2948 40.793V40.7991Z" fill="#211D1D"/>
<path d="M39.7862 42.5344C39.7091 42.4668 39.5179 42.3593 39.558 42.1195C39.7184 41.1699 38.9534 40.251 38.0774 39.8822C38.0281 39.8606 37.9787 39.8422 37.9263 39.8268C36.0509 39.246 34.7955 40.4354 34.7215 41.4434C34.703 41.7046 34.8295 41.9474 35.0454 42.095C35.067 42.1103 35.0947 42.1257 35.1194 42.138C35.6561 42.4238 36.2483 42.5898 36.8591 42.7219C36.8652 42.7219 36.8714 42.7219 36.8776 42.725C37.2909 42.8203 37.7135 42.894 38.1268 42.9862C38.136 42.9893 38.1453 42.9924 38.1576 42.9924C38.9257 43.2044 39.7862 43.4472 40.0484 43.1921C40.2119 42.9647 39.9651 42.7219 39.7862 42.5344Z" fill="#211D1D"/>
<path d="M35.1357 55.1106C35.0432 55.9189 33.6305 56.4199 32.6682 56.5274C31.8261 56.6073 30.5306 56.6073 30.3671 55.5809C30.327 55.2643 30.5399 55.0522 30.8792 55.0492C31.823 55.0492 32.8193 55.3135 33.7138 54.9262C34.124 54.8217 34.6422 54.3669 35.037 54.6589C35.1697 54.8033 35.145 55.0246 35.1357 55.1076V55.1106Z" fill="#211D1D"/>
<path d="M46.0047 16.2547C45.9954 16.2332 45.9861 16.2148 45.9738 16.1994C45.9615 16.181 45.9491 16.1656 45.9337 16.1502C45.8504 16.058 45.7363 16.0119 45.6191 16.0119C45.4895 16.0119 45.36 16.0703 45.2736 16.1871C44.7493 16.9001 44.3082 17.4441 43.8764 17.8406C43.8394 17.8775 43.8054 17.9082 43.7684 17.9389C43.6512 18.0465 43.5309 18.1387 43.4106 18.2186C43.3212 18.2831 43.2286 18.3385 43.1361 18.3876C43.1145 18.403 43.0929 18.4122 43.0713 18.4214C43.0096 18.4552 42.9449 18.486 42.8832 18.5106C42.8122 18.5413 42.7382 18.569 42.6611 18.5935C42.584 18.6181 42.5069 18.6396 42.4297 18.655C42.3526 18.6734 42.2724 18.6888 42.1892 18.7011C42.1059 18.7134 42.0226 18.7195 41.9362 18.7257C41.8499 18.7318 41.7635 18.7349 41.671 18.7349C41.0726 18.7349 40.3631 18.6151 39.4563 18.3999C35.7642 17.5209 32.2726 16.0304 28.5033 15.4249C24.7279 14.8195 20.8292 14.9885 17.1278 15.9382C15.3357 16.4268 13.4048 17.02 12.1587 18.5229C11.6343 19.1037 11.2519 19.8505 10.8509 20.5021C10.7306 20.6803 10.6257 20.7879 10.5578 20.7879C10.5424 20.7879 10.527 20.7818 10.5147 20.7695C10.3265 20.4068 10.8755 19.0269 11.0575 18.4706C11.258 17.985 11.4894 17.2597 10.891 16.9462C10.0736 16.516 9.21918 17.0999 8.63622 17.6623C7.37775 18.8763 7.21427 20.4867 7.48879 22.1033C7.51655 22.2662 7.35616 22.3891 7.20193 22.3307C5.56408 21.7222 2.49811 24.1133 4.49068 25.1982C4.85773 25.3979 5.70596 25.1613 5.40985 25.5516C5.3204 25.6684 5.19702 25.822 5.05205 26.0003C4.49685 26.6856 -1.55798 34.1016 4.60172 44.5141C4.27476 45.5222 3.77816 46.4964 3.68563 47.5751C3.01938 55.5105 10.6319 54.3549 11.1655 54.0999C11.4184 53.98 12.4178 56.3741 12.7386 56.8536C17.4208 63.8147 26.5385 65.6187 34.2528 62.9142C40.7117 60.6491 45.3261 53.3069 43.352 46.4687C43.1639 45.8172 41.9948 43.1372 41.162 43.3094C40.6963 43.4077 41.2422 43.9363 41.3039 44.0777C42.9695 47.8241 42.0349 53.2117 39.6691 56.4878C34.919 63.0648 23.6083 63.784 16.9736 58.5439C15.1537 57.1087 14.034 55.1018 12.9607 53.0795C12.8434 52.8582 12.8835 52.5878 13.0594 52.4064C13.5775 51.8655 14.3117 50.8728 13.7441 50.3873C13.5683 50.2397 13.3092 50.2336 13.1087 50.3504C12.5011 50.7007 12.0939 51.3062 11.5233 51.7026C9.54305 53.0703 6.86881 52.1268 6.0761 49.9508C5.45612 48.2513 5.77074 45.9463 7.28521 44.7968C7.606 44.5541 7.97305 44.3789 8.3617 44.2744C8.56527 44.2191 8.79352 44.1822 9.03411 44.1607C9.82374 44.0931 10.5979 44.4127 11.1408 44.9874C11.9798 45.8756 12.7818 46.7392 13.9847 46.5517C16.952 46.0999 13.8952 40.4204 13.96 39.7473C13.9816 39.5353 14.4319 38.6317 14.9224 37.6175C15.5979 35.9026 15.8169 33.9633 15.1568 32.2146C15.0365 31.7935 14.7034 31.1604 14.9872 30.8101C15.2493 30.5888 15.968 30.8931 16.3289 31.0375C18.414 31.9564 20.6811 32.4881 22.9482 32.7586C32.7476 34.1785 51.4364 29.5469 46.0262 16.3008C46.0201 16.2855 46.0139 16.2701 46.0077 16.2547H46.0047ZM10.0366 35.792L8.75959 36.1177C8.17046 36.2683 7.71396 36.7293 7.56899 37.3163L7.25745 38.5918C7.17726 38.9175 6.71459 38.9206 6.63131 38.5948L6.30127 37.3225C6.15321 36.7385 5.69054 36.2806 5.09832 36.1392L3.81826 35.8258C3.49131 35.7459 3.49131 35.2849 3.81826 35.2019L5.09524 34.8761C5.68437 34.7255 6.14087 34.2645 6.28584 33.6775L6.59738 32.399C6.67757 32.0732 7.14024 32.0701 7.22352 32.399L7.55356 33.6714C7.70162 34.2584 8.16429 34.7132 8.75651 34.8577L10.0366 35.1681C10.3635 35.248 10.3666 35.7121 10.0397 35.795L10.0366 35.792ZM12.3561 31.9595L11.7423 32.1162C11.4585 32.1869 11.2395 32.4082 11.1717 32.691L11.0205 33.3026C10.9835 33.4593 10.7583 33.4624 10.7182 33.3056L10.5609 32.694C10.49 32.4113 10.2679 32.1931 9.98413 32.1255L9.36724 31.9749C9.21301 31.938 9.20993 31.7167 9.36724 31.6768L9.98105 31.52C10.2648 31.4463 10.4838 31.225 10.5517 30.9422L10.7028 30.3306C10.7398 30.1739 10.9619 30.1708 11.002 30.3276L11.1593 30.9392C11.2333 31.2219 11.4554 31.4401 11.7392 31.5077L12.353 31.6583C12.5103 31.6952 12.5134 31.9195 12.3561 31.9595ZM19.2561 24.1071C18.2629 25.2012 17.4732 25.0568 17.6892 24.3499C18.377 22.0941 22.2357 17.7207 30.2337 18.5413C32.6705 18.8087 34.9591 19.5801 37.2571 20.2439C37.3188 20.2624 37.5008 20.3085 37.3897 20.373C37.2108 20.4806 36.9826 20.4836 36.779 20.4806C36.3533 20.4775 23.5682 19.3557 19.2561 24.1071ZM22.8988 26.0556C22.7199 26.0925 22.5996 25.8804 22.7169 25.7421C22.9759 25.4317 23.3831 25.0537 23.4756 24.9769C28.7532 20.4898 37.0011 24.1378 42.5007 21.1936C43.1978 20.8217 43.7715 20.2716 44.4007 19.8044C44.5827 19.6569 44.8356 19.5002 44.8233 19.7583C44.2619 29.8082 30.7766 25.9788 25.6903 25.8804C24.7495 25.862 23.818 25.8804 22.8988 26.0556Z" fill="#211D1D"/>
<path d="M41.0112 7.38752C40.9465 7.84852 40.6627 8.22654 40.2771 8.43246C40.5331 9.60033 40.7645 10.6514 40.3666 13.19C40.1692 14.4531 39.8052 15.8454 39.4721 16.8073C37.279 16.2049 26.8257 12.3079 17.1775 14.4777C17.1621 14.2319 16.7302 11.9268 17.0263 9.71404C17.2762 7.8516 17.8777 6.40713 18.3558 5.4759C17.9609 5.17472 17.7296 4.67991 17.8036 4.15744C17.9116 3.37988 18.6334 2.83898 19.4106 2.94654C20.191 3.05411 20.7339 3.77327 20.6259 4.54775C20.5519 5.07637 20.191 5.49127 19.7253 5.66952C19.9042 7.91306 21.2459 11.5673 23.9479 11.4874C26.4093 11.4167 27.9732 8.07595 28.4821 6.02296C28.5037 5.92768 28.5592 5.65723 28.6055 5.40214C28.115 5.01183 27.8374 4.38487 27.93 3.72103C28.0719 2.72526 28.9972 2.02761 29.9997 2.16592C31.0021 2.30729 31.6992 3.22929 31.5604 4.22813C31.474 4.83665 31.0946 5.33453 30.5826 5.59576C30.4963 6.41327 30.3513 7.701 30.3914 8.14664C31.0946 16.0082 37.606 12.7751 38.8768 8.41094C38.3987 8.1282 38.1087 7.57807 38.192 6.99413C38.3 6.21658 39.0187 5.67567 39.799 5.78324C40.5763 5.89388 41.1223 6.60997 41.0112 7.38752Z" fill="#211D1D"/>
</g>
<path d="M61.524 42V22.86H54.792V18.9H72.612V22.86H65.88V42H61.524ZM81.6198 42.462C78.7158 42.462 76.4058 41.67 74.6898 40.086C72.9738 38.48 72.1158 36.192 72.1158 33.222V27.678C72.1158 24.708 72.9738 22.431 74.6898 20.847C76.4058 19.241 78.7158 18.438 81.6198 18.438C84.5238 18.438 86.8338 19.241 88.5498 20.847C90.2658 22.431 91.1238 24.708 91.1238 27.678V33.222C91.1238 36.192 90.2658 38.48 88.5498 40.086C86.8338 41.67 84.5238 42.462 81.6198 42.462ZM81.6198 38.568C83.2478 38.568 84.5128 38.095 85.4148 37.149C86.3168 36.203 86.7678 34.938 86.7678 33.354V27.546C86.7678 25.962 86.3168 24.697 85.4148 23.751C84.5128 22.805 83.2478 22.332 81.6198 22.332C80.0138 22.332 78.7488 22.805 77.8248 23.751C76.9228 24.697 76.4718 25.962 76.4718 27.546V33.354C76.4718 34.938 76.9228 36.203 77.8248 37.149C78.7488 38.095 80.0138 38.568 81.6198 38.568ZM92.9446 42V18.9H101.03L105.023 39.03H105.617L109.61 18.9H117.695V42H113.471V22.101H112.877L108.917 42H101.723L97.7626 22.101H97.1686V42H92.9446ZM129.021 42.462C126.117 42.462 123.807 41.67 122.091 40.086C120.375 38.48 119.517 36.192 119.517 33.222V27.678C119.517 24.708 120.375 22.431 122.091 20.847C123.807 19.241 126.117 18.438 129.021 18.438C131.925 18.438 134.235 19.241 135.951 20.847C137.667 22.431 138.525 24.708 138.525 27.678V33.222C138.525 36.192 137.667 38.48 135.951 40.086C134.235 41.67 131.925 42.462 129.021 42.462ZM129.021 38.568C130.649 38.568 131.914 38.095 132.816 37.149C133.718 36.203 134.169 34.938 134.169 33.354V27.546C134.169 25.962 133.718 24.697 132.816 23.751C131.914 22.805 130.649 22.332 129.021 22.332C127.415 22.332 126.15 22.805 125.226 23.751C124.324 24.697 123.873 25.962 123.873 27.546V33.354C123.873 34.938 124.324 36.203 125.226 37.149C126.15 38.095 127.415 38.568 129.021 38.568ZM140.346 42V18.9H150.378C151.83 18.9 153.095 19.153 154.173 19.659C155.251 20.165 156.087 20.88 156.681 21.804C157.275 22.728 157.572 23.817 157.572 25.071V25.467C157.572 26.853 157.242 27.975 156.582 28.833C155.922 29.691 155.108 30.318 154.14 30.714V31.308C155.02 31.352 155.702 31.66 156.186 32.232C156.67 32.782 156.912 33.519 156.912 34.443V42H152.556V35.07C152.556 34.542 152.413 34.113 152.127 33.783C151.863 33.453 151.412 33.288 150.774 33.288H144.702V42H140.346ZM144.702 29.328H149.916C150.95 29.328 151.753 29.053 152.325 28.503C152.919 27.931 153.216 27.183 153.216 26.259V25.929C153.216 25.005 152.93 24.268 152.358 23.718C151.786 23.146 150.972 22.86 149.916 22.86H144.702V29.328ZM159.197 42V18.9H169.229C170.681 18.9 171.946 19.153 173.024 19.659C174.102 20.165 174.938 20.88 175.532 21.804C176.126 22.728 176.423 23.817 176.423 25.071V25.467C176.423 26.853 176.093 27.975 175.433 28.833C174.773 29.691 173.959 30.318 172.991 30.714V31.308C173.871 31.352 174.553 31.66 175.037 32.232C175.521 32.782 175.763 33.519 175.763 34.443V42H171.407V35.07C171.407 34.542 171.264 34.113 170.978 33.783C170.714 33.453 170.263 33.288 169.625 33.288H163.553V42H159.197ZM163.553 29.328H168.767C169.801 29.328 170.604 29.053 171.176 28.503C171.77 27.931 172.067 27.183 172.067 26.259V25.929C172.067 25.005 171.781 24.268 171.209 23.718C170.637 23.146 169.823 22.86 168.767 22.86H163.553V29.328ZM187.023 42.462C184.119 42.462 181.809 41.67 180.093 40.086C178.377 38.48 177.519 36.192 177.519 33.222V27.678C177.519 24.708 178.377 22.431 180.093 20.847C181.809 19.241 184.119 18.438 187.023 18.438C189.927 18.438 192.237 19.241 193.953 20.847C195.669 22.431 196.527 24.708 196.527 27.678V33.222C196.527 36.192 195.669 38.48 193.953 40.086C192.237 41.67 189.927 42.462 187.023 42.462ZM187.023 38.568C188.651 38.568 189.916 38.095 190.818 37.149C191.72 36.203 192.171 34.938 192.171 33.354V27.546C192.171 25.962 191.72 24.697 190.818 23.751C189.916 22.805 188.651 22.332 187.023 22.332C185.417 22.332 184.152 22.805 183.228 23.751C182.326 24.697 181.875 25.962 181.875 27.546V33.354C181.875 34.938 182.326 36.203 183.228 37.149C184.152 38.095 185.417 38.568 187.023 38.568ZM200.003 42L196.967 18.9H201.29L203.534 38.964H204.128L207.032 18.9H214.556L217.46 38.964H218.054L220.298 18.9H224.621L221.585 42H214.061L211.091 21.474H210.497L207.527 42H200.003Z" fill="#211D1D"/>
<path d="M230.917 42.462C230.037 42.462 229.289 42.176 228.673 41.604C228.079 41.01 227.782 40.251 227.782 39.327C227.782 38.403 228.079 37.655 228.673 37.083C229.289 36.489 230.037 36.192 230.917 36.192C231.819 36.192 232.567 36.489 233.161 37.083C233.755 37.655 234.052 38.403 234.052 39.327C234.052 40.251 233.755 41.01 233.161 41.604C232.567 42.176 231.819 42.462 230.917 42.462ZM244.371 42.462C241.467 42.462 239.157 41.67 237.441 40.086C235.725 38.48 234.867 36.192 234.867 33.222V27.678C234.867 24.708 235.725 22.431 237.441 20.847C239.157 19.241 241.467 18.438 244.371 18.438C247.275 18.438 249.585 19.241 251.301 20.847C253.017 22.431 253.875 24.708 253.875 27.678V33.222C253.875 36.192 253.017 38.48 251.301 40.086C249.585 41.67 247.275 42.462 244.371 42.462ZM244.371 38.568C245.999 38.568 247.264 38.095 248.166 37.149C249.068 36.203 249.519 34.938 249.519 33.354V27.546C249.519 25.962 249.068 24.697 248.166 23.751C247.264 22.805 245.999 22.332 244.371 22.332C242.765 22.332 241.5 22.805 240.576 23.751C239.674 24.697 239.223 25.962 239.223 27.546V33.354C239.223 34.938 239.674 36.203 240.576 37.149C241.5 38.095 242.765 38.568 244.371 38.568ZM255.696 42V18.9H263.979L268.566 39.03H269.16V18.9H273.45V42H265.167L260.58 21.87H259.986V42H255.696ZM275.803 42V18.9H280.159V38.04H290.719V42H275.803ZM291.689 42V18.9H296.045V42H291.689ZM298.39 42V18.9H306.673L311.26 39.03H311.854V18.9H316.144V42H307.861L303.274 21.87H302.68V42H298.39ZM318.497 42V18.9H333.347V22.86H322.853V28.371H332.423V32.331H322.853V38.04H333.545V42H318.497Z" fill="#211D1D"/>
<path d="M230.917 42.462C230.037 42.462 229.289 42.176 228.673 41.604C228.079 41.01 227.782 40.251 227.782 39.327C227.782 38.403 228.079 37.655 228.673 37.083C229.289 36.489 230.037 36.192 230.917 36.192C231.819 36.192 232.567 36.489 233.161 37.083C233.755 37.655 234.052 38.403 234.052 39.327C234.052 40.251 233.755 41.01 233.161 41.604C232.567 42.176 231.819 42.462 230.917 42.462ZM244.371 42.462C241.467 42.462 239.157 41.67 237.441 40.086C235.725 38.48 234.867 36.192 234.867 33.222V27.678C234.867 24.708 235.725 22.431 237.441 20.847C239.157 19.241 241.467 18.438 244.371 18.438C247.275 18.438 249.585 19.241 251.301 20.847C253.017 22.431 253.875 24.708 253.875 27.678V33.222C253.875 36.192 253.017 38.48 251.301 40.086C249.585 41.67 247.275 42.462 244.371 42.462ZM244.371 38.568C245.999 38.568 247.264 38.095 248.166 37.149C249.068 36.203 249.519 34.938 249.519 33.354V27.546C249.519 25.962 249.068 24.697 248.166 23.751C247.264 22.805 245.999 22.332 244.371 22.332C242.765 22.332 241.5 22.805 240.576 23.751C239.674 24.697 239.223 25.962 239.223 27.546V33.354C239.223 34.938 239.674 36.203 240.576 37.149C241.5 38.095 242.765 38.568 244.371 38.568ZM255.696 42V18.9H263.979L268.566 39.03H269.16V18.9H273.45V42H265.167L260.58 21.87H259.986V42H255.696ZM275.803 42V18.9H280.159V38.04H290.719V42H275.803ZM291.689 42V18.9H296.045V42H291.689ZM298.39 42V18.9H306.673L311.26 39.03H311.854V18.9H316.144V42H307.861L303.274 21.87H302.68V42H298.39ZM318.497 42V18.9H333.347V22.86H322.853V28.371H332.423V32.331H322.853V38.04H333.545V42H318.497Z" fill="url(#paint0_linear_1809_16022)"/>
<path d="M58.782 61V59.028H60.346V51.072H58.782V49.1H64.902C65.6273 49.1 66.2563 49.2247 66.789 49.474C67.333 49.712 67.7523 50.0577 68.047 50.511C68.353 50.953 68.506 51.4857 68.506 52.109V52.279C68.506 52.823 68.404 53.2707 68.2 53.622C67.996 53.962 67.7523 54.2283 67.469 54.421C67.197 54.6023 66.9363 54.7327 66.687 54.812V55.118C66.9363 55.186 67.2083 55.3163 67.503 55.509C67.7977 55.6903 68.047 55.9567 68.251 56.308C68.4663 56.6593 68.574 57.1183 68.574 57.685V57.855C68.574 58.5123 68.421 59.079 68.115 59.555C67.809 60.0197 67.384 60.3767 66.84 60.626C66.3073 60.8753 65.684 61 64.97 61H58.782ZM62.59 58.96H64.698C65.1853 58.96 65.5763 58.841 65.871 58.603C66.177 58.365 66.33 58.025 66.33 57.583V57.413C66.33 56.971 66.1827 56.631 65.888 56.393C65.5933 56.155 65.1967 56.036 64.698 56.036H62.59V58.96ZM62.59 53.996H64.664C65.1287 53.996 65.5083 53.877 65.803 53.639C66.109 53.401 66.262 53.0723 66.262 52.653V52.483C66.262 52.0523 66.1147 51.7237 65.82 51.497C65.5253 51.259 65.14 51.14 64.664 51.14H62.59V53.996ZM70.4111 61V49.1H78.0611V51.14H72.6551V53.979H77.5851V56.019H72.6551V58.96H78.1631V61H70.4111ZM84.1406 61V49.1H86.3846V61H84.1406ZM88.623 61V49.1H92.788L94.845 59.47H95.151L97.208 49.1H101.373V61H99.197V50.749H98.891L96.851 61H93.145L91.105 50.749H90.799V61H88.623ZM103.614 61V49.1H108.51C109.258 49.1 109.916 49.253 110.482 49.559C111.06 49.8537 111.508 50.273 111.825 50.817C112.154 51.361 112.318 52.007 112.318 52.755V52.993C112.318 53.7297 112.148 54.3757 111.808 54.931C111.48 55.475 111.026 55.9 110.448 56.206C109.882 56.5007 109.236 56.648 108.51 56.648H105.858V61H103.614ZM105.858 54.608H108.289C108.822 54.608 109.253 54.4607 109.581 54.166C109.91 53.8713 110.074 53.469 110.074 52.959V52.789C110.074 52.279 109.91 51.8767 109.581 51.582C109.253 51.2873 108.822 51.14 108.289 51.14H105.858V54.608ZM112.145 61L115.273 49.1H119.183L122.311 61H119.999L119.353 58.382H115.103L114.457 61H112.145ZM115.63 56.308H118.826L117.381 50.511H117.075L115.63 56.308ZM125.394 61V51.14H121.926V49.1H131.106V51.14H127.638V61H125.394ZM132.634 61V49.1H134.878V61H132.634ZM137.116 61V49.1H144.766V51.14H139.36V53.979H144.29V56.019H139.36V58.96H144.868V61H137.116ZM146.529 61V49.1H150.796L153.159 59.47H153.465V49.1H155.675V61H151.408L149.045 50.63H148.739V61H146.529ZM160.672 61V51.14H157.204V49.1H166.384V51.14H162.916V61H160.672Z" fill="#211D1D"/>
<defs>
<linearGradient id="paint0_linear_1809_16022" x1="226" y1="30.5" x2="335" y2="30.5" gradientUnits="userSpaceOnUse">
<stop offset="0.0432692" stop-color="#B407FE"/>
<stop offset="0.379808" stop-color="#FE0776"/>
<stop offset="1" stop-color="#FF0A37"/>
</linearGradient>
<clipPath id="clip0_1809_16022">
<rect width="49" height="66" fill="white"/>
</clipPath>
</defs>
</svg>
